<svg width="38" height="38" viewBox="0 0 38 38" fill="none" xmlns="http://www.w3.org/2000/svg">
<g clip-path="url(#clip0_26_818)">
<path d="M5.51798 9.11113C5.59081 9.07558 5.66158 9.03714 5.73011 8.99878C5.76492 9.04466 5.80129 9.08856 5.84411 9.13064L9.85612 13.1436C10.1072 12.8491 10.4768 12.6636 10.8774 12.6636C11.0071 12.6636 11.1362 12.6822 11.2606 12.7192L11.7608 12.868L12.0721 11.8206L7.61306 7.36119C7.5423 7.29126 7.46624 7.23248 7.38415 7.18222L7.39465 7.13609C7.40523 7.09368 7.41895 7.06185 7.43185 7.02523C7.4421 6.99786 7.45293 6.96918 7.4631 6.93909C7.47608 6.9099 7.48898 6.8789 7.50195 6.84658C7.52411 6.79276 7.54767 6.7344 7.57793 6.67513L7.66167 6.50508L7.75707 6.3366C7.79733 6.25922 7.8428 6.19201 7.89463 6.11513C7.92241 6.07445 7.95027 6.03213 7.97862 5.98922C8.00367 5.95574 8.02996 5.9216 8.05584 5.88622C8.12081 5.80049 8.18141 5.71914 8.24721 5.64879L8.29318 5.59811C8.38023 5.50313 8.46728 5.40492 8.56863 5.32126C8.60087 5.29249 8.62518 5.27017 8.6508 5.24752C8.68503 5.21561 8.71975 5.18303 8.75679 5.15385L8.95221 5.01183C8.95883 5.00802 8.96329 5.00389 8.96767 4.99959C9.04588 4.93718 9.13971 4.88427 9.23999 4.82838C9.28016 4.80648 9.3191 4.78474 9.35853 4.76126C9.44244 4.70744 9.52899 4.67264 9.62109 4.63577C9.66755 4.61626 9.71293 4.59774 9.75939 4.57781C9.7861 4.56723 9.81346 4.55492 9.84033 4.54301C9.86951 4.53102 9.89819 4.51656 9.92738 4.50928L10.1423 4.44893C10.185 4.43835 10.2346 4.42405 10.2846 4.40958C10.3544 4.38916 10.4221 4.36982 10.4675 4.3637L11.0429 4.27955C11.1267 4.26739 11.2008 4.22846 11.2579 4.17208C11.3203 4.109 11.3621 4.02369 11.368 3.92986C11.3803 3.75096 11.2666 3.58744 11.0948 3.53701L10.5278 3.37573C10.4292 3.34613 10.3244 3.33075 10.2235 3.31596C10.1785 3.30901 10.1326 3.3024 10.084 3.2943L9.8357 3.25586C9.75782 3.24321 9.68483 3.24139 9.61985 3.24007C9.5943 3.23916 9.56851 3.23866 9.54164 3.23734C9.47667 3.23643 9.42954 3.23387 9.38093 3.23163C9.23635 3.2256 9.07283 3.21923 8.89906 3.24189L8.78903 3.25073C8.6227 3.26454 8.43223 3.27991 8.24093 3.32579L7.93423 3.3878C7.8399 3.41111 7.76096 3.4355 7.68184 3.46013L7.58504 3.48973C7.36324 3.55123 7.1535 3.63927 6.95039 3.72492L6.92253 3.73658C6.74834 3.80875 6.5902 3.89307 6.43734 3.9745L6.31053 4.04204C6.30168 4.04642 6.29491 4.05146 6.28606 4.05609C6.23704 4.0866 6.18686 4.11669 6.13817 4.14637C6.00581 4.22647 5.868 4.30947 5.74069 4.40404L5.52856 4.55541C5.5241 4.55921 5.50327 4.57434 5.49806 4.57864L5.28816 4.74621C5.23162 4.78986 5.17945 4.83417 5.12944 4.8779C4.75139 4.94081 4.38815 5.11624 4.0969 5.40831L3.64743 5.85703C3.44051 6.0642 3.24641 6.3547 3.08653 6.68017C2.38194 6.54484 1.42587 7.58531 0 9.01077L3.18846 12.1977C4.28159 11.104 5.65422 9.81572 5.51798 9.11113Z" fill="#A43B3B"/>
<path d="M30.5201 8.91354L32.5288 9.30208L34.5733 6.72066C34.9466 6.25226 35.5675 6.03782 36.147 6.17488V5.06323H33.1275V7.47882H29.8754L30.5201 8.91354Z" fill="#A43B3B"/>
<path d="M12.2912 9.56578L12.911 7.47839H10.2045L12.2912 9.56578Z" fill="#A43B3B"/>
<path d="M36.147 20.4607V12.723C36.0927 12.7975 36.0389 12.8726 35.981 12.9453C35.1407 14.0066 34.0256 14.7703 32.7757 15.1771H33.1286V20.4607H26.0508H25.0386L28.8294 15.292C28.8981 15.204 28.9615 15.1131 29.0202 15.0201C31.138 15.5509 33.4682 14.8439 34.9096 13.025C35.9612 11.6972 36.3702 9.98299 36.0306 8.32076C35.9929 8.13236 35.8483 7.98331 35.6619 7.93834C35.4744 7.89419 35.2786 7.96182 35.1586 8.11203L32.7152 11.1969L29.5385 10.5819L28.2121 7.62982L30.6567 4.5447C30.7763 4.39424 30.7971 4.18757 30.711 4.01611C30.6246 3.844 30.4468 3.73785 30.2551 3.74322C28.5587 3.79324 26.9832 4.58314 25.9312 5.9108C24.4916 7.72886 24.3359 10.1576 25.3345 12.0971C25.259 12.1767 25.1847 12.2611 25.1133 12.3509L20.2078 18.1866L21.395 19.374C21.7026 19.6816 21.9177 20.0544 22.0327 20.4606H21.5035C21.4067 20.1942 21.2537 19.944 21.0393 19.7301L14.2867 12.9763L14.1111 13.565L14.5687 13.7012C14.913 13.8031 15.1968 14.0332 15.3678 14.3487C15.5386 14.6642 15.5765 15.0279 15.4744 15.3719C15.4192 15.5563 15.3246 15.7263 15.1996 15.8699C15.2349 16.1855 15.208 16.5051 15.115 16.8124L14.5086 18.8547L16.1145 20.4596H15.6H14.476H13.3481L14.5405 16.4451C14.643 16.1034 14.6343 15.7546 14.5384 15.4368C14.7064 15.3511 14.8413 15.1991 14.8996 15.0037C15.0113 14.6253 14.7957 14.2268 14.4169 14.1148L13.357 13.7992L16.238 4.10217L16.3287 4.12912L17.075 2.68423L17.3677 0.430762L16.1239 0.0616455L15.1558 2.11514L15.0003 3.7352L15.0924 3.76265L12.2113 13.4603L11.1082 13.1327C10.7307 13.0202 10.3314 13.236 10.2193 13.6145C10.1652 13.7974 10.1874 13.9845 10.2675 14.1426C10.0022 14.3579 9.7955 14.6535 9.69068 15.0059L8.0726 20.4607H6.99418H6.55877V15.1776H8.56374L8.9221 13.9695C9.01238 13.6669 9.07413 13.5836 9.25419 13.3312L6.01745 10.015C5.57418 10.6254 5.13529 11.2587 4.45261 11.9364L3.53995 12.8481V20.4607H2.55792V31.0288C2.55792 34.3633 5.26244 37.0671 8.59738 37.0671H31.0909C34.4263 37.0671 37.1291 34.3637 37.1291 31.0288V20.4607H36.147ZM12.445 16.7073C12.564 16.3051 12.9865 16.0768 13.3887 16.1957C13.7892 16.315 14.0186 16.7374 13.8992 17.1393L12.9132 20.4608H11.33L12.445 16.7073ZM9.99911 15.9809C10.1182 15.5793 10.5408 15.3504 10.9427 15.4694C11.3444 15.5886 11.5733 16.011 11.4538 16.4126L10.2514 20.4608H8.66856L9.99911 15.9809Z" fill="#A43B3B"/>
<path d="M16.3625 7.47835L15.1943 11.4107L18.9618 15.1776H20.9812L24.3401 11.1823C23.8788 9.98934 23.7745 8.70483 24.003 7.47827H16.3625V7.47835Z" fill="#A43B3B"/>
<g clip-path="url(#clip1_26_818)">
<path d="M11.686 31.1781L10.0959 26.9511L11.9981 26.2355C12.2678 26.1341 12.5333 26.1008 12.7946 26.1358C13.06 26.1693 13.2937 26.2652 13.4957 26.4235C13.6962 26.5779 13.8449 26.7839 13.9418 27.0415C14.0418 27.3072 14.0695 27.5702 14.025 27.8305C13.9789 28.0868 13.8699 28.3162 13.698 28.5188C13.526 28.7213 13.3031 28.8741 13.0294 28.9771L12.1055 29.3246L12.6643 30.8101L11.686 31.1781ZM14.029 30.2967L12.2363 28.7929L13.2303 28.2467L15.2005 29.8561L14.029 30.2967ZM11.8102 28.5396L12.6435 28.2261C12.7482 28.1867 12.8304 28.1305 12.8903 28.0575C12.9526 27.9789 12.988 27.8897 12.9965 27.7901C13.0089 27.6889 12.9947 27.5839 12.9538 27.4752C12.913 27.3665 12.8532 27.281 12.7746 27.2187C12.6945 27.1523 12.5998 27.1144 12.4906 27.1049C12.3854 27.094 12.2683 27.1127 12.1395 27.1612L11.3968 27.4406L11.8102 28.5396ZM15.926 29.5831L14.3359 25.3561L17.2828 24.2476L17.6122 25.1232L15.6617 25.8569L16.593 28.3327L18.6039 27.5763L18.9333 28.4519L15.926 29.5831ZM15.7572 27.6683L15.4437 26.835L17.6357 26.0104L17.9492 26.8437L15.7572 27.6683ZM19.8181 28.119L18.228 23.892L19.1459 23.5467L22.4978 25.7324L22.2872 25.7771C22.2171 25.6519 22.1533 25.5311 22.0958 25.4149C22.0383 25.2986 21.9815 25.1844 21.9255 25.0722C21.8736 24.9585 21.8208 24.8428 21.7674 24.725C21.7179 24.6058 21.6647 24.4764 21.6076 24.3371C21.5546 24.1962 21.4971 24.0432 21.435 23.8781L21.042 22.8334L22.0384 22.4586L23.6285 26.6857L22.6985 27.0355L19.2136 24.7896L19.5375 24.716C19.6303 24.9017 19.7085 25.0607 19.7721 25.193C19.8381 25.3198 19.8949 25.434 19.9423 25.5356C19.9938 25.6358 20.0374 25.7273 20.0732 25.8104C20.1091 25.8934 20.1429 25.9772 20.1747 26.0617C20.209 26.1407 20.2451 26.2305 20.2829 26.3312L20.8145 27.7442L19.8181 28.119ZM25.607 25.9414L24.3576 22.6202L23.1016 23.0927L22.7608 22.1869L26.3297 20.8444L26.6704 21.7502L25.3842 22.234L26.6335 25.5552L25.607 25.9414Z" fill="#FBF7F7"/>
</g>
<rect x="6.05727" y="23.6265" width="21.4897" height="14.1643" rx="2.17615" transform="rotate(-20.615 6.05727 23.6265)" stroke="#FBF7F7" stroke-width="0.992027"/>
</g>
<defs>
<clipPath id="clip0_26_818">
<rect width="37.1291" height="37.129" fill="white"/>
</clipPath>
<clipPath id="clip1_26_818">
<rect x="6.69617" y="23.9161" width="20.4977" height="13.1723" rx="1.68014" transform="rotate(-20.615 6.69617 23.9161)" fill="white"/>
</clipPath>
</defs>
</svg>
